<?xml version="1.0" encoding="us-ascii" standalone="no"?><svg xmlns="http://www.w3.org/2000/svg" xmlns:xlink="http://www.w3.org/1999/xlink" contentStyleType="text/css" height="474px" preserveAspectRatio="none" style="width:563px;height:474px;background:#FFFFFF;" version="1.1" viewBox="0 0 563 474" width="563px" zoomAndPan="magnify"><defs/><g><!--entity User--><g id="elem_User"><ellipse cx="202.5" cy="273" fill="#FFFFFF" rx="8" ry="8" style="stroke:#000000;stroke-width:1.0;"/><path d="M202.5,281 L202.5,308 M189.5,289 L215.5,289 M202.5,308 L189.5,323 M202.5,308 L215.5,323 " fill="none" style="stroke:#000000;stroke-width:1.0;"/><text fill="#000000" font-family="Hack" font-size="14" lengthAdjust="spacing" textLength="29" x="188" y="339.5332">User</text></g><!--entity CLI--><g id="elem_CLI"><rect fill="#FFFFFF" height="47.6094" rx="2.5" ry="2.5" style="stroke:#000000;stroke-width:1.0;" width="61" x="12" y="421"/><rect fill="#FFFFFF" height="10" style="stroke:#000000;stroke-width:1.0;" width="15" x="53" y="426"/><rect fill="#FFFFFF" height="2" style="stroke:#000000;stroke-width:1.0;" width="4" x="51" y="428"/><rect fill="#FFFFFF" height="2" style="stroke:#000000;stroke-width:1.0;" width="4" x="51" y="432"/><text fill="#000000" font-family="Hack" font-size="14" lengthAdjust="spacing" textLength="21" x="27" y="455.5332">CLI</text></g><!--entity Core--><g id="elem_Core"><rect fill="#FFFFFF" height="47.6094" rx="2.5" ry="2.5" style="stroke:#000000;stroke-width:1.0;" width="159" x="56" y="12"/><rect fill="#FFFFFF" height="10" style="stroke:#000000;stroke-width:1.0;" width="15" x="195" y="17"/><rect fill="#FFFFFF" height="2" style="stroke:#000000;stroke-width:1.0;" width="4" x="193" y="19"/><rect fill="#FFFFFF" height="2" style="stroke:#000000;stroke-width:1.0;" width="4" x="193" y="23"/><text fill="#000000" font-family="Hack" font-size="14" lengthAdjust="spacing" textLength="119" x="71" y="46.5332">Linter Core Engine</text></g><!--entity Processor--><g id="elem_Processor"><rect fill="#FFFFFF" height="47.6094" rx="2.5" ry="2.5" style="stroke:#000000;stroke-width:1.0;" width="137" x="67" y="138"/><rect fill="#FFFFFF" height="10" style="stroke:#000000;stroke-width:1.0;" width="15" x="184" y="143"/><rect fill="#FFFFFF" height="2" style="stroke:#000000;stroke-width:1.0;" width="4" x="182" y="145"/><rect fill="#FFFFFF" height="2" style="stroke:#000000;stroke-width:1.0;" width="4" x="182" y="149"/><text fill="#000000" font-family="Hack" font-size="14" lengthAdjust="spacing" textLength="97" x="82" y="172.5332">Rule Processor</text></g><!--entity Reporter--><g id="elem_Reporter"><rect fill="#FFFFFF" height="47.6094" rx="2.5" ry="2.5" style="stroke:#000000;stroke-width:1.0;" width="96" x="461.5" y="138"/><rect fill="#FFFFFF" height="10" style="stroke:#000000;stroke-width:1.0;" width="15" x="537.5" y="143"/><rect fill="#FFFFFF" height="2" style="stroke:#000000;stroke-width:1.0;" width="4" x="535.5" y="145"/><rect fill="#FFFFFF" height="2" style="stroke:#000000;stroke-width:1.0;" width="4" x="535.5" y="149"/><text fill="#000000" font-family="Hack" font-size="14" lengthAdjust="spacing" textLength="56" x="476.5" y="172.5332">Reporter</text></g><!--entity Config--><g id="elem_Config"><path d="M305,145.5 L305,178.1094 A2.5,2.5 0 0 0 307.5,180.6094 L423.5,180.6094 A2.5,2.5 0 0 0 426,178.1094 L426,153 L416,143 L307.5,143 A2.5,2.5 0 0 0 305,145.5 " fill="#FFFFFF" style="stroke:#000000;stroke-width:1.0;"/><path d="M416,143 L416,150.5 A2.5,2.5 0 0 0 418.5,153 L426,153 " fill="#FFFFFF" style="stroke:#000000;stroke-width:1.0;"/><text fill="#000000" font-family="Hack" font-size="14" lengthAdjust="spacing" textLength="101" x="315" y="167.5332">Rule Config File</text></g><!--link User to CLI--><g id="link_User_CLI"><path d="M187.73,317.37 C160.74,340.91 107.5822,387.2567 73.6022,416.8867 " fill="none" id="User-to-CLI" style="stroke:#000000;stroke-width:1.0;"/><polygon fill="#000000" points="69.08,420.83,78.4922,417.9299,72.8485,417.5439,73.2345,411.9002,69.08,420.83" style="stroke:#000000;stroke-width:1.0;"/><text fill="#000000" font-family="Hack" font-size="13" lengthAdjust="spacing" textLength="45" x="123.5" y="387.4951">initiates</text></g><!--link CLI to Core--><g id="link_CLI_Core"><path d="M37.93,420.73 C28.67,368.22 11.65,237.31 49.5,138 C61.31,107.01 82.6245,82.9924 102.8845,64.3524 " fill="none" id="CLI-to-Core" style="stroke:#000000;stroke-width:1.0;"/><polygon fill="#000000" points="107.3,60.29,97.9685,63.44,103.6204,63.6754,103.385,69.3273,107.3,60.29" style="stroke:#000000;stroke-width:1.0;"/><text fill="#000000" font-family="Hack" font-size="13" lengthAdjust="spacing" textLength="85" x="31.5" y="230.4951">starts analysis</text></g><!--link Core to Processor--><g id="link_Core_Processor"><path d="M135.5,60.03 C135.5,82.17 135.5,109.44 135.5,131.67 " fill="none" id="Core-to-Processor" style="stroke:#000000;stroke-width:1.0;"/><polygon fill="#000000" points="135.5,137.67,139.5,128.67,135.5,132.67,131.5,128.67,135.5,137.67" style="stroke:#000000;stroke-width:1.0;"/><text fill="#000000" font-family="Hack" font-size="13" lengthAdjust="spacing" textLength="94" x="136.5" y="104.4951">delegates linting</text></g><!--link Processor to Config--><g id="link_Processor_Config"><path d="M204.2,162 C236.23,162 268.02,162 298.96,162 " fill="none" id="Processor-to-Config" style="stroke:#000000;stroke-width:1.0;stroke-dasharray:7.0,7.0;"/><polygon fill="#000000" points="304.96,162,295.96,158,299.96,162,295.96,166,304.96,162" style="stroke:#000000;stroke-width:1.0;"/><text fill="#000000" font-family="Hack" font-size="13" lengthAdjust="spacing" textLength="64" x="222.5" y="155.4951">reads rules</text></g><!--link Core to Reporter--><g id="link_Core_Reporter"><path d="M207.19,60.1 C269.7,80.33 362.74,110.69 443.5,138 C449.25,139.94 449.5962,140.0585 455.5562,142.1085 " fill="none" id="Core-to-Reporter" style="stroke:#000000;stroke-width:1.0;"/><polygon fill="#000000" points="461.23,144.06,454.0204,137.3502,456.5019,142.4337,451.4183,144.9152,461.23,144.06" style="stroke:#000000;stroke-width:1.0;"/><text fill="#000000" font-family="Hack" font-size="13" lengthAdjust="spacing" textLength="90" x="351.5" y="104.4951">provides results</text></g><!--link Reporter to User--><g id="link_Reporter_User"><path d="M461.19,184.95 C389.94,217.33 265.8627,273.7082 222.5227,293.3982 " fill="none" id="Reporter-to-User" style="stroke:#000000;stroke-width:1.0;"/><polygon fill="#000000" points="217.06,295.88,226.9085,295.7991,221.6122,293.8119,223.5995,288.5156,217.06,295.88" style="stroke:#000000;stroke-width:1.0;"/><text fill="#000000" font-family="Hack" font-size="13" lengthAdjust="spacing" textLength="85" x="393.5" y="230.4951">displays report</text></g><!--SRC=[LOz1QiD034NtEeMQVNg0BB8nBHIoA8KSOB0LLp2MZ3GfvFQLdDf9LyF__qdwyzA-QIASL1IWz4qDpqu6lKwp2ad3NNVws65nZFVPFh4qCkpK2DzaPA4x5VeP-xfMma_JdjpL5cHJ_pYQrMBXGgm2BXpJznsToeL7V0_dxr1gWAoB-_qn- -41MRXnQUIGUl6puG6z5MkEHKgzEKUSTkPRdO06gZJcDDRu7ii8Z_Jrk7Oue54P72rwEJmshRK3c4r_U8WzHdwjpM7B4bmwnpNskPPRGXd2Bm00]--></g></svg>